<svg xmlns="http://www.w3.org/2000/svg" width="1430" height="57.39" fill="#3cd5e5" >
  <path d="M226.16 38.54c25.96-7.66 50.48-14.9 67.85-16.17 25.35-1.85 65.04 6.89 103.42 15.34 33.48 7.37 65.11 14.33 87.97 14.67 22.76.34 56.7-5.36 89.54-10.86 28.64-4.8 58.25-9.77 77.69-10.14 19.36-.38 47.61 3.38 77.52 7.34 34.5 4.57 70.17 9.3 93.84 7.64 18.43-1.3 44.96-8.91 70.6-16.28 24.83-7.13 50.51-14.5 67.41-15.72 25.65-1.85 65.69 3.4 104.42 8.48 37.3 4.89 72.53 9.51 97.36 8.53 14.94-.59 34.2-3.52 54.59-6.61 25.89-3.93 55.23-8.38 79.13-8.38 62.31 0 129.82 20 130.58 20.23l1.92.55V22.59c-11.99-3.44-73.44-20.21-132.5-20.21-24.95 0-54.85 4.54-81.23 8.54-20 3.04-38.89 5.9-53.05 6.46-23.64.95-59.91-3.82-94.98-8.42-39.42-5.17-80.17-10.52-107.25-8.57-18.35 1.32-44.75 8.9-70.27 16.23-24.95 7.17-50.75 14.58-67.72 15.77-22.25 1.56-57.21-3.07-91.02-7.55-30.44-4.04-59.2-7.84-79.62-7.46-20.48.39-49.27 5.21-79.75 10.33-32.22 5.41-65.57 10.99-87.02 10.67-21.44-.32-52.39-7.13-85.17-14.35-39.36-8.67-80.07-17.62-107.45-15.63-18.87 1.37-44.1 8.82-70.8 16.7-30.44 8.99-61.92 18.28-83.69 18.28-33.9.01-136.09-20.15-137.14-20.36L0 22.76v14.26c12.83 2.52 104.99 20.37 138.5 20.37 23.8 0 56.26-9.58 87.66-18.85Z" data-name="Layer 1 copy 3"/>
</svg>
