<svg xmlns="http://www.w3.org/2000/svg" width="400" height="400" viewBox="0 0 400 400" fill="white" opacity="1" >
    <path d="m118.08 29.05.21 1.89.14 1.3c.04.33.33.57.66.53l.7-.08c.33-.04.63.2.66.53l.08.7c.04.33.33.57.66.53l.7-.08c.33-.04.63.2.66.53l.08.7c.04.33.33.57.66.53l1.3-.14 1.89-.21 1.89-.21 1.89-.21 1.89-.21 1.89-.21 1.89-.21 1.89-.21 1.89-.21 1.89-.21 1.89-.21 1.89-.21 1.89-.21 1.89-.21 1.89-.21 1.89-.21 1.3-.14c.33-.04.57-.33.53-.66l-.08-.7a.59.59 0 0 1 .53-.66l.7-.08c.33-.04.57-.33.53-.66l-.08-.7a.59.59 0 0 1 .53-.66l.7-.08c.33-.04.57-.33.53-.66l-.14-1.3-.21-1.89-.21-1.89-.14-1.3a.596.596 0 0 0-.66-.53l-.7.08a.59.59 0 0 1-.66-.53l-.14-1.3-.14-1.3a.596.596 0 0 0-.66-.53l-.7.08a.59.59 0 0 1-.66-.53l-.08-.7a.596.596 0 0 0-.66-.53l-1.3.14-1.89.21-1.3.14c-.33.04-.57.33-.53.66l.08.7c.04.33-.2.63-.53.66l-.7.08c-.33.04-.57.33-.53.66l.08.7c.04.33-.2.63-.53.66l-.7.08a.59.59 0 0 1-.66-.53l-.14-1.3-.14-1.3a.596.596 0 0 0-.66-.53l-.7.08a.59.59 0 0 1-.66-.53l-.08-.7a.596.596 0 0 0-.66-.53l-.7.08a.59.59 0 0 1-.66-.53l-.08-.7a.596.596 0 0 0-.66-.53l-1.3.14-1.89.21-1.3.14c-.33.04-.57.33-.53.66l.08.7c.04.33-.2.63-.53.66l-.7.08c-.33.04-.57.33-.53.66l.08.7c.04.33-.2.63-.53.66l-.7.08c-.33.04-.57.33-.53.66l.14 1.3.14 1.3c.04.33-.2.63-.53.66l-.7.08a.59.59 0 0 1-.66-.53l-.08-.7a.596.596 0 0 0-.66-.53l-.7.08a.59.59 0 0 1-.66-.53l-.08-.7a.596.596 0 0 0-.66-.53l-1.3.14-1.89.21-1.3.14c-.33.04-.57.33-.53.66l.08.7c.04.33-.2.63-.53.66l-.7.08c-.33.04-.57.33-.53.66l.14 1.3.14 1.3c.04.33-.2.63-.53.66l-.7.08c-.33.04-.57.33-.53.66l.14 1.3.21 1.89ZM303.05 254.07l-.7-.07a.605.605 0 0 1-.54-.66l.13-1.3.13-1.3a.611.611 0 0 0-.54-.66l-.7-.07a.605.605 0 0 1-.54-.66l.07-.7a.611.611 0 0 0-.54-.66l-1.3-.13-1.9-.19-1.3-.13a.611.611 0 0 0-.66.54l-.07.7c-.03.33-.33.57-.66.54l-.7-.07a.611.611 0 0 0-.66.54l-.07.7c-.03.33-.33.57-.66.54l-.7-.07a.605.605 0 0 1-.54-.66l.13-1.3.13-1.3a.611.611 0 0 0-.54-.66l-.7-.07a.605.605 0 0 1-.54-.66l.07-.7a.611.611 0 0 0-.54-.66l-.7-.07a.605.605 0 0 1-.54-.66l.07-.7a.611.611 0 0 0-.54-.66l-1.3-.13-1.89-.19-1.3-.13a.611.611 0 0 0-.66.54l-.07.7c-.03.33-.33.57-.66.54l-.7-.07a.611.611 0 0 0-.66.54l-.07.7c-.03.33-.33.57-.66.54l-.7-.07a.611.611 0 0 0-.66.54l-.13 1.3-.13 1.3c-.03.33-.33.57-.66.54l-.7-.07a.605.605 0 0 1-.54-.66l.07-.7a.611.611 0 0 0-.54-.66l-.7-.07a.605.605 0 0 1-.54-.66l.07-.7a.611.611 0 0 0-.54-.66l-1.3-.13-1.9-.19-1.3-.13a.611.611 0 0 0-.66.54l-.07.7c-.03.33-.33.57-.66.54l-.7-.07a.611.611 0 0 0-.66.54l-.13 1.3-.13 1.3c-.03.33-.33.57-.66.54l-.7-.07a.611.611 0 0 0-.66.54l-.13 1.3-.19 1.9-.19 1.89-.13 1.3c-.03.33.21.62.54.66l.7.07c.33.03.57.33.54.66l-.07.7c-.03.33.21.62.54.66l.7.07c.33.03.57.33.54.66l-.07.7c-.03.33.21.62.54.66l1.3.13 1.9.19 1.89.19 1.89.19 1.9.19 1.89.19 1.89.19 1.9.19 1.89.19 1.9.19 1.89.19 1.89.19 1.9.19 1.89.19 1.89.19 1.9.19 1.3.13c.33.03.62-.21.66-.54l.07-.7c.03-.33.33-.57.66-.54l.7.07c.33.03.62-.21.66-.54l.07-.7c.03-.33.33-.57.66-.54l.7.07c.33.03.62-.21.66-.54l.13-1.3.19-1.89.19-1.9.13-1.3a.611.611 0 0 0-.54-.66ZM89.46 122.76l-.77-1.74-.77-1.74-.53-1.19a.593.593 0 0 0-.79-.3l-.64.29c-.3.13-.66 0-.79-.3l-.53-1.19-.53-1.19a.593.593 0 0 0-.79-.3l-.65.29c-.3.13-.66 0-.79-.3l-.29-.64a.593.593 0 0 0-.79-.3l-.64.29c-.3.13-.44.49-.3.79l.29.64c.13.3 0 .66-.3.79l-.65.29c-.3.13-.44.49-.3.79l.29.65c.13.3 0 .66-.3.79l-.64.29c-.3.13-.44.49-.3.79l.29.64c.13.3 0 .66-.3.79l-.64.29c-.3.13-.66 0-.79-.3l-.29-.64a.593.593 0 0 0-.79-.3l-.65.29c-.3.13-.66 0-.79-.3l-.29-.65a.593.593 0 0 0-.79-.3l-.64.29c-.3.13-.66 0-.79-.3l-.29-.64c-.13-.3 0-.66.3-.79l.64-.29c.3-.13.44-.49.3-.79l-.29-.64c-.13-.3 0-.66.3-.79l.65-.29c.3-.13.44-.49.3-.79l-.29-.65c-.13-.3 0-.66.3-.79l.64-.29c.3-.13.44-.49.3-.79l-.29-.64a.593.593 0 0 0-.79-.3l-.64.29c-.3.13-.66 0-.79-.3l-.29-.65a.593.593 0 0 0-.79-.3l-1.19.53-1.19.53c-.3.13-.66 0-.79-.3l-.29-.64a.593.593 0 0 0-.79-.3l-1.19.53-1.74.77-1.74.77-1.19.53c-.3.13-.44.49-.3.79l.29.64c.13.3 0 .66-.3.79l-1.19.53-1.19.53c-.3.13-.44.49-.3.79l.29.65c.13.3 0 .66-.3.79l-.65.29c-.3.13-.44.49-.3.79l.29.64c.13.3.49.44.79.3l.65-.29c.3-.13.66 0 .79.3l.29.65c.13.3.49.44.79.3l.64-.29c.3-.13.66 0 .79.3l.29.64c.13.3.49.44.79.3l.64-.29c.3-.13.66 0 .79.3l.29.64c.13.3 0 .66-.3.79l-.64.29c-.3.13-.44.49-.3.79l.29.65c.13.3 0 .66-.3.79l-.64.29c-.3.13-.44.49-.3.79l.29.64c.13.3 0 .66-.3.79l-.65.29c-.3.13-.66 0-.79-.3l-.29-.64a.593.593 0 0 0-.79-.3l-.64.29c-.3.13-.66 0-.79-.3l-.29-.65a.593.593 0 0 0-.79-.3l-.64.29c-.3.13-.66 0-.79-.3l-.29-.64a.593.593 0 0 0-.79-.3l-.65.29c-.3.13-.44.49-.3.79l.29.64c.13.3 0 .66-.3.79l-.64.29c-.3.13-.44.49-.3.79l.53 1.19.53 1.19c.13.3 0 .66-.3.79l-.65.29c-.3.13-.44.49-.3.79l.53 1.19.77 1.74.77 1.74.53 1.19c.13.3.49.44.79.3l.65-.29c.3-.13.66 0 .79.3l.53 1.19.53 1.19c.13.3.49.44.79.3l.64-.29c.3-.13.66 0 .79.3l.29.65c.13.3.49.44.79.3l.65-.29c.3-.13.44-.49.3-.79l-.29-.65c-.13-.3 0-.66.3-.79l.64-.29c.3-.13.44-.49.3-.79l-.29-.64c-.13-.3 0-.66.3-.79l.64-.29c.3-.13.44-.49.3-.79l-.29-.64c-.13-.3 0-.66.3-.79l.65-.29c.3-.13.66 0 .79.3l.29.64c.13.3.49.44.79.3l.64-.29c.3-.13.66 0 .79.3l.29.64c.13.3.49.44.79.3l.64-.29c.3-.13.66 0 .79.3l.29.65c.13.3 0 .66-.3.79l-.64.29c-.3.13-.44.49-.3.79l.29.64c.13.3 0 .66-.3.79l-.64.29c-.3.13-.44.49-.3.79l.29.64c.13.3 0 .66-.3.79l-.65.29c-.3.13-.44.49-.3.79l.29.65c.13.3.49.44.79.3l.65-.29c.3-.13.66 0 .79.3l.29.64c.13.3.49.44.79.3l1.19-.53 1.19-.53c.3-.13.66 0 .79.3l.29.65c.13.3.49.44.79.3l1.19-.53 1.74-.77 1.74-.77 1.19-.53c.3-.13.44-.49.3-.79l-.29-.65c-.13-.3 0-.66.3-.79l1.19-.53 1.19-.53c.3-.13.44-.49.3-.79l-.29-.64c-.13-.3 0-.66.3-.79l.64-.29c.3-.13.44-.49.3-.79l-.29-.65a.593.593 0 0 0-.79-.3l-.64.29c-.3.13-.66 0-.79-.3l-.29-.64a.593.593 0 0 0-.79-.3l-.65.29c-.3.13-.66 0-.79-.3l-.29-.64a.593.593 0 0 0-.79-.3l-.64.29c-.3.13-.66 0-.79-.3l-.29-.65c-.13-.3 0-.66.3-.79l.64-.29c.3-.13.44-.49.3-.79l-.29-.64c-.13-.3 0-.66.3-.79l.65-.29c.3-.13.44-.49.3-.79l-.29-.64c-.13-.3 0-.66.3-.79l.64-.29c.3-.13.66 0 .79.3l.29.64c.13.3.49.44.79.3l.64-.29c.3-.13.66 0 .79.3l.29.64c.13.3.49.44.79.3l.65-.29c.3-.13.66 0 .79.3l.29.65c.13.3.49.44.79.3l.64-.29c.3-.13.44-.49.3-.79l-.29-.65c-.13-.3 0-.66.3-.79l.65-.29c.3-.13.44-.49.3-.79l-.53-1.19-.53-1.19c-.13-.3 0-.66.3-.79l.64-.29c.3-.13.44-.49.3-.79l-.53-1.19Zm-24.4 4.59.64-.29c.3-.13.44-.49.3-.79l-.29-.64c-.13-.3 0-.66.3-.79l.65-.29c.3-.13.44-.49.3-.79l-.29-.65c-.13-.3 0-.66.3-.79l.64-.29c.3-.13.66 0 .79.3l.53 1.19.77 1.74.53 1.19c.13.3 0 .66-.3.79l-1.19.53-1.74.77-1.19.53c-.3.13-.66 0-.79-.3l-.29-.64c-.13-.3 0-.66.3-.79Zm6.25 7.64-.65.29c-.3.13-.66 0-.79-.3l-.29-.64a.593.593 0 0 0-.79-.3l-.64.29c-.3.13-.66 0-.79-.3l-.29-.65a.593.593 0 0 0-.79-.3l-.64.29c-.3.13-.66 0-.79-.3l-.29-.64c-.13-.3 0-.66.3-.79l1.19-.53 1.74-.77 1.19-.53c.3-.13.66 0 .79.3l.53 1.19.77 1.74.53 1.19c.13.3 0 .66-.3.79Zm6.19-4.83-.64.29c-.3.13-.44.49-.3.79l.29.64c.13.3 0 .66-.3.79l-.64.29c-.3.13-.44.49-.3.79l.29.64c.13.3 0 .66-.3.79l-.65.29c-.3.13-.66 0-.79-.3l-.53-1.19-.77-1.74-.53-1.19c-.13-.3 0-.66.3-.79l1.19-.53 1.74-.77 1.19-.53c.3-.13.66 0 .79.3l.29.65c.13.3 0 .66-.3.79Zm.19-4.26-1.19.53-1.74.77-1.19.53c-.3.13-.66 0-.79-.3l-.53-1.19-.77-1.74-.53-1.19c-.13-.3 0-.66.3-.79l.64-.29c.3-.13.66 0 .79.3l.29.64c.13.3.49.44.79.3l.64-.29c.3-.13.66 0 .79.3l.29.64c.13.3.49.44.79.3l.65-.29c.3-.13.66 0 .79.3l.29.65c.13.3 0 .66-.3.79ZM356.83 367.43l-.7-.02a.59.59 0 0 1-.58-.62l.03-1.3.03-1.31c0-.33-.25-.61-.58-.62l-.71-.02a.59.59 0 0 1-.58-.62l.02-.7c0-.33-.25-.61-.58-.62l-.7-.02c-.33 0-.61.25-.62.58l-.02.7c0 .33-.28.59-.62.58l-.71-.02c-.33 0-.61.25-.62.58l-.02.71c0 .33-.28.59-.62.58l-.7-.02c-.33 0-.61.25-.62.58l-.02.7c0 .33-.28.59-.62.58l-.7-.02a.59.59 0 0 1-.58-.62l.02-.7c0-.33-.25-.61-.58-.62l-.71-.02a.59.59 0 0 1-.58-.62l.02-.71c0-.33-.25-.61-.58-.62l-.7-.02a.59.59 0 0 1-.58-.62l.02-.7c0-.33.28-.59.62-.58l.7.02c.33 0 .61-.25.62-.58l.02-.7c0-.33.28-.59.62-.58l.71.02c.33 0 .61-.25.62-.58l.02-.71c0-.33.28-.59.62-.58l.7.02c.33 0 .61-.25.62-.58l.02-.7c0-.33-.25-.61-.58-.62l-.7-.02a.59.59 0 0 1-.58-.62l.02-.71c0-.33-.25-.61-.58-.62l-1.31-.03-1.3-.03a.59.59 0 0 1-.58-.62l.02-.7c0-.33-.25-.61-.58-.62l-1.3-.03-1.91-.05-1.9-.05-1.31-.03c-.33 0-.61.25-.62.58l-.02.7c0 .33-.28.59-.62.58l-1.3-.03-1.3-.03c-.33 0-.61.25-.62.58l-.02.71c0 .33-.28.59-.62.58l-.71-.02c-.33 0-.61.25-.62.58l-.02.7c0 .33.25.61.58.62l.71.02c.33 0 .59.28.58.62l-.02.71c0 .33.25.61.58.62l.7.02c.33 0 .59.28.58.62l-.02.7c0 .33.25.61.58.62l.7.02c.33 0 .59.28.58.62l-.02.7c0 .33-.28.59-.62.58l-.7-.02c-.33 0-.61.25-.62.58l-.02.71c0 .33-.28.59-.62.58l-.7-.02c-.33 0-.61.25-.62.58l-.02.7c0 .33-.28.59-.62.58l-.71-.02a.59.59 0 0 1-.58-.62l.02-.7c0-.33-.25-.61-.58-.62l-.7-.02a.59.59 0 0 1-.58-.62l.02-.71c0-.33-.25-.61-.58-.62l-.7-.02a.59.59 0 0 1-.58-.62l.02-.7c0-.33-.25-.61-.58-.62l-.71-.02c-.33 0-.61.25-.62.58l-.02.7c0 .33-.28.59-.62.58l-.7-.02c-.33 0-.61.25-.62.58l-.03 1.31-.03 1.3c0 .33-.28.59-.62.58l-.71-.02c-.33 0-.61.25-.62.58l-.03 1.3-.05 1.91-.05 1.9-.03 1.31c0 .33.25.61.58.62l.71.02c.33 0 .59.28.58.62l-.03 1.3-.03 1.3c0 .33.25.61.58.62l.7.02c.33 0 .59.28.58.62l-.02.71c0 .33.25.61.58.62l.71.02c.33 0 .61-.25.62-.58l.02-.71c0-.33.28-.59.62-.58l.7.02c.33 0 .61-.25.62-.58l.02-.7c0-.33.28-.59.62-.58l.7.02c.33 0 .61-.25.62-.58l.02-.7c0-.33.28-.59.62-.58l.71.02c.33 0 .59.28.58.62l-.02.7c0 .33.25.61.58.62l.7.02c.33 0 .59.28.58.62l-.02.7c0 .33.25.61.58.62l.7.02c.33 0 .59.28.58.62l-.02.71c0 .33-.28.59-.62.58l-.7-.02c-.33 0-.61.25-.62.58l-.02.7c0 .33-.28.59-.62.58l-.7-.02c-.33 0-.61.25-.62.58l-.02.7c0 .33-.28.59-.62.58l-.71-.02c-.33 0-.61.25-.62.58l-.02.71c0 .33.25.61.58.62l.71.02c.33 0 .59.28.58.62l-.02.7c0 .33.25.61.58.62l1.3.03 1.3.03c.33 0 .59.28.58.62l-.02.71c0 .33.25.61.58.62l1.31.03 1.9.05 1.91.05 1.3.03c.33 0 .61-.25.62-.58l.02-.71c0-.33.28-.59.62-.58l1.3.03 1.31.03c.33 0 .61-.25.62-.58l.02-.7c0-.33.28-.59.62-.58l.7.02c.33 0 .61-.25.62-.58l.02-.71c0-.33-.25-.61-.58-.62l-.7-.02a.59.59 0 0 1-.58-.62l.02-.7c0-.33-.25-.61-.58-.62l-.71-.02a.59.59 0 0 1-.58-.62l.02-.7c0-.33-.25-.61-.58-.62l-.7-.02a.59.59 0 0 1-.58-.62l.02-.71c0-.33.28-.59.62-.58l.7.02c.33 0 .61-.25.62-.58l.02-.7c0-.33.28-.59.62-.58l.71.02c.33 0 .61-.25.62-.58l.02-.7c0-.33.28-.59.62-.58l.7.02c.33 0 .59.28.58.62l-.02.7c0 .33.25.61.58.62l.7.02c.33 0 .59.28.58.62l-.02.7c0 .33.25.61.58.62l.71.02c.33 0 .59.28.58.62l-.02.71c0 .33.25.61.58.62l.7.02c.33 0 .61-.25.62-.58l.02-.71c0-.33.28-.59.62-.58l.71.02c.33 0 .61-.25.62-.58l.03-1.3.03-1.3c0-.33.28-.59.62-.58l.7.02c.33 0 .61-.25.62-.58l.03-1.31.05-1.9.05-1.91.03-1.3c0-.33-.25-.61-.58-.62Zm-20.5 5.17-.05 1.91-.03 1.3c0 .33-.28.59-.62.58l-.71-.02a.59.59 0 0 1-.58-.62l.02-.7c0-.33-.25-.61-.58-.62l-.7-.02a.59.59 0 0 1-.58-.62l.02-.71c0-.33-.25-.61-.58-.62l-.7-.02a.59.59 0 0 1-.58-.62l.02-.7c0-.33.28-.59.62-.58l1.3.03 1.9.05 1.31.03c.33 0 .59.28.58.62l-.03 1.3Zm1.4-3.77-1.3-.03-1.91-.05-1.3-.03a.59.59 0 0 1-.58-.62l.02-.7c0-.33.28-.59.62-.58l.7.02c.33 0 .61-.25.62-.58l.02-.7c0-.33.28-.59.62-.58l.71.02c.33 0 .61-.25.62-.58l.02-.71c0-.33.28-.59.62-.58l.7.02c.33 0 .59.28.58.62l-.03 1.31-.05 1.9-.03 1.3c0 .33-.28.59-.62.58Zm6.18 5.28c0 .33-.28.59-.62.58l-.7-.02c-.33 0-.61.25-.62.58l-.02.7c0 .33-.28.59-.62.58l-.7-.02c-.33 0-.61.25-.62.58l-.02.7c0 .33-.28.59-.62.58l-.71-.02a.59.59 0 0 1-.58-.62l.03-1.3.05-1.9.03-1.31c0-.33.28-.59.62-.58l1.31.03 1.9.05 1.3.03c.33 0 .59.28.58.62l-.02.71Zm2.01-3.76c0 .33-.28.59-.62.58l-1.31-.03-1.9-.05-1.3-.03a.59.59 0 0 1-.58-.62l.03-1.31.05-1.9.03-1.3c0-.33.28-.59.62-.58l.7.02c.33 0 .59.28.58.62l-.02.7c0 .33.25.61.58.62l.7.02c.33 0 .59.28.58.62l-.02.7c0 .33.25.61.58.62l.71.02c.33 0 .59.28.58.62l-.02.71ZM23.95 261.01v-.71c0-.33.27-.6.6-.6h.71c.33 0 .6-.27.6-.6v-.7c0-.33-.27-.6-.6-.6h-.71c-.33 0-.6-.27-.6-.6v-.71c0-.33-.27-.6-.6-.6h-.7c-.33 0-.6-.27-.6-.6v-.7c0-.33-.27-.6-.6-.6h-.7c-.33 0-.6-.27-.6-.6v-.7c0-.33-.27-.6-.6-.6h-.71c-.33 0-.6-.27-.6-.6v-.71c0-.33-.27-.6-.6-.6h-.7c-.33 0-.6.27-.6.6v.71c0 .33-.27.6-.6.6h-.71c-.33 0-.6.27-.6.6v.7c0 .33-.27.6-.6.6h-.7c-.33 0-.6.27-.6.6v.7c0 .33-.27.6-.6.6h-.7c-.33 0-.6.27-.6.6v.71c0 .33-.27.6-.6.6h-.71c-.33 0-.6.27-.6.6v.7c0 .33.27.6.6.6h.71c.33 0 .6.27.6.6v.71c0 .33.27.6.6.6h.7c.33 0 .6.27.6.6v.7c0 .33.27.6.6.6h.7c.33 0 .6.27.6.6v.7c0 .33.27.6.6.6h.71c.33 0 .6.27.6.6v.71c0 .33.27.6.6.6h.7c.33 0 .6-.27.6-.6v-.71c0-.33.27-.6.6-.6h.71c.33 0 .6-.27.6-.6v-.7c0-.33.27-.6.6-.6h.7c.33 0 .6-.27.6-.6v-.7c0-.33.27-.6.6-.6h.7c.33 0 .6-.27.6-.6ZM227.25 351.8h-.71c-.33 0-.6-.27-.6-.6v-.71c0-.33-.27-.6-.6-.6h-.7c-.33 0-.6-.27-.6-.6v-.7c0-.33-.27-.6-.6-.6h-.7c-.33 0-.6-.27-.6-.6v-.7c0-.33-.27-.6-.6-.6h-.71c-.33 0-.6-.27-.6-.6v-.71c0-.33-.27-.6-.6-.6h-.7c-.33 0-.6.27-.6.6v.71c0 .33-.27.6-.6.6h-.71c-.33 0-.6.27-.6.6v.7c0 .33-.27.6-.6.6h-.7c-.33 0-.6.27-.6.6v.7c0 .33-.27.6-.6.6h-.7c-.33 0-.6.27-.6.6v.71c0 .33-.27.6-.6.6h-.71c-.33 0-.6.27-.6.6v.7c0 .33.27.6.6.6h.71c.33 0 .6.27.6.6v.71c0 .33.27.6.6.6h.7c.33 0 .6.27.6.6v.7c0 .33.27.6.6.6h.7c.33 0 .6.27.6.6v.7c0 .33.27.6.6.6h.71c.33 0 .6.27.6.6v.71c0 .33.27.6.6.6h.7c.33 0 .6-.27.6-.6v-.71c0-.33.27-.6.6-.6h.71c.33 0 .6-.27.6-.6v-.7c0-.33.27-.6.6-.6h.7c.33 0 .6-.27.6-.6v-.7c0-.33.27-.6.6-.6h.7c.33 0 .6-.27.6-.6v-.71c0-.33.27-.6.6-.6h.71c.33 0 .6-.27.6-.6v-.7c0-.33-.27-.6-.6-.6ZM250.31 26.71h.71c.33 0 .6.27.6.6v.71c0 .33.27.6.6.6h.7c.33 0 .6.27.6.6v.7c0 .33.27.6.6.6h.7c.33 0 .6.27.6.6v.7c0 .33.27.6.6.6h.71c.33 0 .6.27.6.6v.71c0 .33.27.6.6.6h.7c.33 0 .6-.27.6-.6v-.71c0-.33.27-.6.6-.6h.71c.33 0 .6-.27.6-.6v-.7c0-.33.27-.6.6-.6h.7c.33 0 .6-.27.6-.6v-.7c0-.33.27-.6.6-.6h.7c.33 0 .6-.27.6-.6v-.71c0-.33.27-.6.6-.6h.71c.33 0 .6-.27.6-.6v-.7c0-.33-.27-.6-.6-.6h-.71c-.33 0-.6-.27-.6-.6v-.71c0-.33-.27-.6-.6-.6h-.7c-.33 0-.6-.27-.6-.6v-.7c0-.33-.27-.6-.6-.6h-.7c-.33 0-.6-.27-.6-.6v-.7c0-.33-.27-.6-.6-.6h-.71c-.33 0-.6-.27-.6-.6v-.71c0-.33-.27-.6-.6-.6h-.7c-.33 0-.6.27-.6.6v.71c0 .33-.27.6-.6.6h-.71c-.33 0-.6.27-.6.6v.7c0 .33-.27.6-.6.6h-.7c-.33 0-.6.27-.6.6v.7c0 .33-.27.6-.6.6h-.7c-.33 0-.6.27-.6.6v.71c0 .33-.27.6-.6.6h-.71c-.33 0-.6.27-.6.6v.7c0 .33.27.6.6.6ZM264.52 127.25v-2.61c0-.33-.27-.6-.6-.6h-.71c-.33 0-.6-.27-.6-.6v-2.61c0-.33-.27-.6-.6-.6h-.7c-.33 0-.6-.27-.6-.6v-.7c0-.33.27-.6.6-.6h.7c.33 0 .6-.27.6-.6v-4.51c0-.33.27-.6.6-.6h.71c.33 0 .6-.27.6-.6v-.71c0-.33.27-.6.6-.6h.7c.33 0 .6-.27.6-.6v-2.61c0-.33-.27-.6-.6-.6h-.7c-.33 0-.6-.27-.6-.6v-.7c0-.33-.27-.6-.6-.6h-.71c-.33 0-.6-.27-.6-.6v-8.32c0-.33-.27-.6-.6-.6h-.7c-.33 0-.6-.27-.6-.6v-.7c0-.33-.27-.6-.6-.6h-.7c-.33 0-.6-.27-.6-.6v-.71c0-.33-.27-.6-.6-.6h-8.32c-.33 0-.6.27-.6.6v.71c0 .33-.27.6-.6.6h-.71c-.33 0-.6.27-.6.6v.7c0 .33-.27.6-.6.6h-.7c-.33 0-.6.27-.6.6v2.61c0 .33-.27.6-.6.6h-.7c-.33 0-.6.27-.6.6v2.61c0 .33-.27.6-.6.6h-4.51c-.33 0-.6-.27-.6-.6v-.71c0-.33-.27-.6-.6-.6h-4.52c-.33 0-.6.27-.6.6v2.61c0 .33.27.6.6.6h.71c.33 0 .6.27.6.6v.7c0 .33.27.6.6.6h.7c.33 0 .6.27.6.6v.71c0 .33.27.6.6.6h6.42c.33 0 .6.27.6.6v6.42c0 .33.27.6.6.6h.7c.33 0 .6.27.6.6v.71c0 .33.27.6.6.6h.7c.33 0 .6.27.6.6v.7c0 .33-.27.6-.6.6h-2.61c-.33 0-.6.27-.6.6v2.61c0 .33.27.6.6.6h.7c.33 0 .6.27.6.6v.7c0 .33.27.6.6.6h4.51c.33 0 .6-.27.6-.6v-.7c0-.33.27-.6.6-.6h.71c.33 0 .6-.27.6-.6v-.71c0-.33.27-.6.6-.6h2.61c.33 0 .6.27.6.6v.71c0 .33.27.6.6.6h.71c.33 0 .6.27.6.6v.7c0 .33-.27.6-.6.6h-.71c-.33 0-.6.27-.6.6v.71c0 .33.27.6.6.6h6.42c.33 0 .6-.27.6-.6ZM61.21 386.42l-.34-1.26a.602.602 0 0 0-.74-.42l-.68.18c-.32.09-.65-.1-.74-.42l-.34-1.26-.34-1.26a.602.602 0 0 0-.74-.42l-.68.18c-.32.09-.65-.1-.74-.42l-.18-.68c-.09-.32.1-.65.42-.74l.68-.18c.32-.09.51-.42.42-.74l-.34-1.26-.5-1.84-.34-1.26c-.09-.32.1-.65.42-.74l.68-.18c.32-.09.51-.42.42-.74l-.18-.68c-.09-.32.1-.65.42-.74l.68-.18c.32-.09.51-.42.42-.74l-.34-1.26-.34-1.26a.602.602 0 0 0-.74-.42l-.68.18c-.32.09-.65-.1-.74-.42l-.18-.68a.602.602 0 0 0-.74-.42l-.68.18c-.32.09-.65-.1-.74-.42l-.34-1.26-.5-1.84-.5-1.84-.5-1.84-.34-1.26a.602.602 0 0 0-.74-.42l-.68.18c-.32.09-.65-.1-.74-.42l-.18-.68a.602.602 0 0 0-.74-.42l-.68.18c-.32.09-.65-.1-.74-.42l-.18-.68a.602.602 0 0 0-.74-.42l-1.26.34-1.84.5-1.84.5-1.84.5-1.26.34c-.32.09-.51.42-.42.74l.18.68c.09.32-.1.65-.42.74l-.68.18c-.32.09-.51.42-.42.74l.18.68c.09.32-.1.65-.42.74l-.68.18c-.32.09-.51.42-.42.74l.34 1.26.34 1.26c.09.32-.1.65-.42.74l-.68.18c-.32.09-.51.42-.42.74l.34 1.26.34 1.26c.09.32-.1.65-.42.74l-1.26.34-1.84.5-1.26.34c-.32.09-.65-.1-.74-.42l-.18-.68a.602.602 0 0 0-.74-.42l-1.26.34-1.84.5-1.26.34c-.32.09-.51.42-.42.74l.34 1.26.34 1.26c.09.32.42.51.74.42l.68-.18c.32-.09.65.1.74.42l.18.68c.09.32.42.51.74.42l.68-.18c.32-.09.65.1.74.42l.18.68c.09.32.42.51.74.42l1.26-.34 1.84-.5 1.84-.5 1.26-.34c.32-.09.65.1.74.42l.34 1.26.5 1.84.5 1.84.34 1.26c.09.32.42.51.74.42l.68-.18c.32-.09.65.1.74.42l.18.68c.09.32.42.51.74.42l.68-.18c.32-.09.65.1.74.42l.18.68c.09.32-.1.65-.42.74l-1.26.34-1.26.34c-.32.09-.51.42-.42.74l.34 1.26.34 1.26c.09.32.42.51.74.42l.68-.18c.32-.09.65.1.74.42l.18.68c.09.32.42.51.74.42l1.26-.34 1.84-.5 1.26-.34c.32-.09.51-.42.42-.74l-.18-.68c-.09-.32.1-.65.42-.74l.68-.18c.32-.09.51-.42.42-.74l-.18-.68c-.09-.32.1-.65.42-.74l1.26-.34 1.26-.34c.32-.09.65.1.74.42l.18.68c.09.32.42.51.74.42l.68-.18c.32-.09.65.1.74.42l.18.68c.09.32-.1.65-.42.74l-.68.18c-.32.09-.51.42-.42.74l.18.68c.09.32.42.51.74.42l1.26-.34 1.84-.5 1.84-.5 1.26-.34c.32-.09.51-.42.42-.74l-.34-1.26ZM169.41 179.18l-1.27-.3-1.85-.44-1.85-.44-1.85-.44-1.27-.3a.596.596 0 0 1-.44-.72l.16-.68a.592.592 0 0 0-.44-.72l-1.27-.3-1.27-.3a.596.596 0 0 1-.44-.72l.3-1.27.3-1.27a.592.592 0 0 0-.44-.72l-.68-.16a.596.596 0 0 1-.44-.72l.3-1.27.3-1.27a.592.592 0 0 0-.44-.72l-.69-.16a.596.596 0 0 1-.44-.72l.3-1.27.3-1.27a.592.592 0 0 0-.44-.72l-.68-.16a.592.592 0 0 0-.72.44l-.3 1.27-.3 1.27c-.08.32-.4.52-.72.44l-.69-.16a.592.592 0 0 0-.72.44l-.3 1.27-.3 1.27c-.08.32-.4.52-.72.44l-.68-.16a.592.592 0 0 0-.72.44l-.3 1.27-.3 1.27c-.08.32-.4.52-.72.44l-1.27-.3-1.27-.3a.592.592 0 0 0-.72.44l-.16.68c-.08.32-.4.52-.72.44l-1.27-.3-1.85-.44-1.85-.44-1.85-.44-1.27-.3a.592.592 0 0 0-.72.44l-.16.68c-.08.32.12.65.44.72l.69.16c.32.08.52.4.44.72l-.16.69c-.08.32.12.65.44.72l.68.16c.32.08.52.4.44.72l-.16.68c-.08.32.12.65.44.72l.69.16c.32.08.52.4.44.72l-.16.69c-.08.32.12.65.44.72l.68.16c.32.08.52.4.44.72l-.16.68c-.08.32.12.65.44.72l.68.16c.32.08.52.4.44.72l-.16.68c-.08.32-.4.52-.72.44l-.68-.16a.592.592 0 0 0-.72.44l-.3 1.27-.44 1.85-.05.2-1.27-.3a.592.592 0 0 0-.72.44l-.28 1.17-.02.1-.39 1.65-.02.1-.42 1.75-.3 1.27c-.08.32.12.65.44.72l.68.16c.32.08.65-.12.72-.44l.16-.69c.08-.32.4-.52.72-.44l.68.16c.32.08.65-.12.72-.44l.16-.68c.08-.32.4-.52.72-.44l1.27.3 1.27.3c.32.08.65-.12.72-.44l.16-.69c.08-.32.4-.52.72-.44l1.27.3 1.27.3c.32.08.65-.12.72-.44l.16-.68c.08-.32.4-.52.72-.44l.68.16c.32.08.52.4.44.72l-.16.68c-.08.32.12.65.44.72l1.27.3 1.27.3c.32.08.52.4.44.72l-.16.69c-.08.32.12.65.44.72l1.27.3 1.27.3c.32.08.52.4.44.72l-.16.68c-.08.32.12.65.44.72l.68.16c.32.08.52.4.44.72l-.16.69c-.08.32.12.65.44.72l.68.16c.32.08.65-.12.72-.44l.3-1.27.44-1.85.42-1.75.3-1.27a.592.592 0 0 0-.44-.72l-1.25-.3.02-.1.44-1.85.3-1.27a.592.592 0 0 0-.44-.72l-.68-.16a.596.596 0 0 1-.44-.72l.16-.68c.08-.32.4-.52.72-.44l.68.16c.32.08.65-.12.72-.44l.16-.68c.08-.32.4-.52.72-.44l.68.16c.32.08.65-.12.72-.44l.16-.69c.08-.32.4-.52.72-.44l.69.16c.32.08.65-.12.72-.44l.16-.68c.08-.32.4-.52.72-.44l.68.16c.32.08.65-.12.72-.44l.16-.69c.08-.32.4-.52.72-.44l.69.16c.32.08.65-.12.72-.44l.16-.68a.592.592 0 0 0-.44-.72ZM1.97 82.28c.33 0 .6.27.6.6v.7c0 .33.27.6.6.6h.7c.33 0 .6.27.6.6v.71c0 .33.27.6.6.6h.7c.33 0 .6-.27.6-.6v-6.32c0-.33-.27-.6-.6-.6H4.48v-3.31c0-.33-.27-.6-.6-.6h-.7c-.33 0-.6-.27-.6-.6v-.7c0-.33.27-.6.6-.6h.7c.33 0 .6-.27.6-.6v-.7c0-.33.27-.6.6-.6h.7c.33 0 .6-.27.6-.6v-.71c0-.33.27-.6.6-.6h.71c.33 0 .6-.27.6-.6v-.7c0-.33.27-.6.6-.6h.7c.33 0 .6-.27.6-.6v-.71c0-.33.27-.6.6-.6h.71c.33 0 .6-.27.6-.6v-.7c0-.33-.27-.6-.6-.6H3.17c-.33 0-.6-.27-.6-.6v-.7c0-.33-.27-.6-.6-.6H0v20.95h1.97ZM398.76 60.73v-2.61c0-.33-.27-.6-.6-.6h-.7c-.33 0-.6-.27-.6-.6v-2.61c0-.33-.27-.6-.6-.6h-.71c-.33 0-.6-.27-.6-.6V50.5c0-.33-.27-.6-.6-.6h-.7c-.33 0-.6.27-.6.6v2.61c0 .33-.27.6-.6.6h-.71c-.33 0-.6.27-.6.6v2.61c0 .33-.27.6-.6.6h-.7c-.33 0-.6.27-.6.6v2.61c0 .33-.27.6-.6.6h-2.61c-.33 0-.6.27-.6.6v.7c0 .33-.27.6-.6.6h-8.32c-.33 0-.6.27-.6.6v.7c0 .33.27.6.6.6h.71c.33 0 .6.27.6.6v.71c0 .33.27.6.6.6h.7c.33 0 .6.27.6.6v.7c0 .33.27.6.6.6h.71c.33 0 .6.27.6.6v.71c0 .33.27.6.6.6h.7c.33 0 .6.27.6.6v.7c0 .33.27.6.6.6h.7c.33 0 .6.27.6.6v.7c0 .33-.27.6-.6.6h-.7c-.33 0-.6.27-.6.6v3.42h-1.3c-.33 0-.6.27-.6.6v6.21c0 .33.27.6.6.6h.7c.33 0 .6-.27.6-.6v-.71c0-.33.27-.6.6-.6h.7c.33 0 .6-.27.6-.6v-.7c0-.33.27-.6.6-.6h2.61c.33 0 .6-.27.6-.6v-.71c0-.33.27-.6.6-.6h2.61c.33 0 .6-.27.6-.6v-.7c0-.33.27-.6.6-.6h.7c.33 0 .6.27.6.6v.7c0 .33.27.6.6.6h2.61c.33 0 .6.27.6.6v.71c0 .33.27.6.6.6h.64V61.32h-.64c-.33 0-.6-.27-.6-.6ZM151.66 268.3l-.55-1.82-.55-1.82-.55-1.82-.55-1.82-.55-1.82-.55-1.82-.55-1.82-.55-1.82-.55-1.82-.55-1.82-.55-1.82-.55-1.82-.55-1.82-.55-1.82-.55-1.82-.55-1.82-.55-1.82-.55-1.82-.55-1.82-.38-1.25c-.1-.32-.43-.5-.75-.4l-.67.2c-.32.1-.5.43-.4.75l.2.67c.1.32-.08.65-.4.75l-.68.2c-.32.1-.5.43-.4.75l.2.68c.1.32-.08.65-.4.75l-.67.2c-.32.1-.5.43-.4.75l.2.67c.1.32-.08.65-.4.75l-.68.2c-.32.1-.5.43-.4.75l.2.68c.1.32-.08.65-.4.75l-.67.2c-.32.1-.5.43-.4.75l.2.67c.1.32-.08.65-.4.75l-.67.2c-.32.1-.65-.08-.75-.4l-.2-.67c-.1-.32-.43-.5-.75-.4l-.68.2c-.32.1-.65-.08-.75-.4l-.2-.68c-.1-.32-.43-.5-.75-.4l-.67.2c-.32.1-.65-.08-.75-.4l-.2-.67c-.1-.32-.43-.5-.75-.4l-.67.2c-.32.1-.65-.08-.75-.4l-.2-.68c-.1-.32-.43-.5-.75-.4l-.68.2c-.32.1-.65-.08-.75-.4l-.2-.67c-.1-.32-.43-.5-.75-.4l-.67.2c-.32.1-.5.43-.4.75l.2.67c.1.32-.08.65-.4.75l-.68.2c-.32.1-.5.43-.4.75l.2.68c.1.32-.08.65-.4.75l-.67.2c-.32.1-.5.43-.4.75l.2.67c.1.32-.08.65-.4.75l-.67.2c-.32.1-.5.43-.4.75l.2.68c.1.32-.08.65-.4.75l-.68.2c-.32.1-.5.43-.4.75l.2.67c.1.32-.08.65-.4.75l-.67.2c-.32.1-.65-.08-.75-.4l-.2-.67c-.1-.32-.43-.5-.75-.4l-.67.2c-.32.1-.65-.08-.75-.4l-.2-.68c-.1-.32-.43-.5-.75-.4l-.68.2c-.32.1-.65-.08-.75-.4l-.2-.67c-.1-.32-.43-.5-.75-.4l-.67.2c-.32.1-.65-.08-.75-.4l-.2-.68c-.1-.32-.43-.5-.75-.4l-.68.2c-.32.1-.65-.08-.75-.4l-.2-.67c-.1-.32-.43-.5-.75-.4l-.67.2c-.32.1-.5.43-.4.75l.38 1.25.55 1.82.55 1.82.55 1.82.55 1.82.55 1.82.55 1.82.55 1.82.55 1.82.55 1.82.55 1.82.55 1.82.55 1.82.55 1.82.55 1.82.55 1.82.55 1.82.55 1.82.55 1.82.55 1.82.38 1.25c.1.32.43.5.75.4l1.25-.38 1.82-.55 1.82-.55 1.82-.55 1.82-.55 1.82-.55 1.82-.55 1.82-.55 1.82-.55 1.82-.55 1.82-.55 1.82-.55 1.82-.55 1.82-.55 1.82-.55 1.82-.55 1.82-.55 1.82-.55 1.82-.55 1.82-.55 1.25-.38c.32-.1.5-.43.4-.75l-.38-1.25ZM394.98 127.59l-.69-.13a.603.603 0 0 0-.7.48l-.13.69c-.06.33-.37.54-.7.48l-.69-.13a.603.603 0 0 0-.7.48l-.13.69c-.06.33-.37.54-.7.48l-.69-.13a.603.603 0 0 0-.7.48l-.13.69c-.06.33-.37.54-.7.48l-.69-.13a.603.603 0 0 0-.7.48l-.13.69c-.06.33-.37.54-.7.48l-.69-.13a.603.603 0 0 0-.7.48l-.13.69c-.06.33-.37.54-.7.48l-.69-.13a.595.595 0 0 1-.48-.7l.13-.69a.603.603 0 0 0-.48-.7l-.69-.13a.595.595 0 0 1-.48-.7l.13-.69a.603.603 0 0 0-.48-.7l-.69-.13a.595.595 0 0 1-.48-.7l.13-.69a.603.603 0 0 0-.48-.7l-.69-.13a.595.595 0 0 1-.48-.7l.13-.69a.603.603 0 0 0-.48-.7l-.69-.13a.595.595 0 0 1-.48-.7l.13-.69a.603.603 0 0 0-.48-.7l-.69-.13a.603.603 0 0 0-.7.48l-.13.69c-.06.33-.37.54-.7.48l-.69-.13a.603.603 0 0 0-.7.48l-.13.69c-.06.33-.37.54-.7.48l-.69-.13a.603.603 0 0 0-.7.48l-.13.69c-.06.33-.37.54-.7.48l-.69-.13a.603.603 0 0 0-.7.48l-.13.69c-.06.33-.37.54-.7.48l-.69-.13a.603.603 0 0 0-.7.48l-.13.69c-.06.33-.37.54-.7.48l-.69-.13a.595.595 0 0 1-.48-.7l.13-.69a.603.603 0 0 0-.48-.7l-.69-.13a.595.595 0 0 1-.48-.7l.13-.69a.603.603 0 0 0-.48-.7l-.69-.13a.595.595 0 0 1-.48-.7l.13-.69a.603.603 0 0 0-.48-.7l-.69-.13a.595.595 0 0 1-.48-.7l.13-.69a.603.603 0 0 0-.48-.7l-.69-.13a.595.595 0 0 1-.48-.7l.13-.69a.603.603 0 0 0-.48-.7l-.69-.13a.603.603 0 0 0-.7.48l-.24 1.28-.34 1.87-.34 1.87-.34 1.87-.34 1.87-.34 1.87-.34 1.87-.34 1.87-.34 1.87-.34 1.87-.34 1.87-.34 1.87-.34 1.87-.34 1.87-.34 1.87-.34 1.87-.34 1.87-.34 1.87-.34 1.87-.34 1.87-.24 1.28c-.06.33.16.64.48.7l1.28.24 1.87.34 1.87.34 1.87.34 1.87.34 1.87.34 1.87.34 1.87.34 1.87.34 1.87.34 1.87.34 1.87.34 1.87.34 1.87.34 1.87.34 1.87.34 1.87.34 1.87.34 1.87.34 1.87.34 1.28.24c.33.06.64-.16.7-.48l.24-1.28.34-1.87.34-1.87.34-1.87.34-1.87.34-1.87.34-1.87.34-1.87.34-1.87.34-1.87.34-1.87.34-1.87.34-1.87.34-1.87.34-1.87.34-1.87.34-1.87.34-1.87.34-1.87.34-1.87.24-1.28a.603.603 0 0 0-.48-.7Z"/>
</svg>
