<svg xmlns="http://www.w3.org/2000/svg" width="800" height="434.48" data-name="Layer 2" fill="#dd73e1">
  <g data-name="Layer 1 copy">
    <path d="m399.5 147.9 200-130.01L800 147.93v-17.88L599.5 0l-200 130-200-130L0 129.78v17.9L199.5 17.9l200 130z"/>
    <path d="m400.02 300.36 199.5-139.99L800 300.62v-42.71L599.48 117.63l-199.5 140.01-200.47-139.98L0 256.81v42.67l199.49-139.14 200.53 140.02z"/>
    <path d="m400.02 434 199.49-139.99L800 434.48v-30.52L599.49 263.47 399.98 403.48 199.49 263.49 0 403.17v30.52l199.51-139.7L400.02 434z"/>
  </g>
</svg>
